<svg id="图层_1" data-name="图层 1" xmlns="http://www.w3.org/2000/svg" viewBox="0 0 4523.14 3158.95"><defs><style>.cls-1,.cls-2{fill:none;stroke-width:2px;}.cls-1{stroke:#818181;}.cls-2{stroke:#d88080;}.cls-3{fill:#fff;}.cls-4{fill:#020202;}.cls-5{fill:#b00000;}</style></defs><title>logo</title><path class="cls-1" d="M1305.8,1354.47l-349,0a.73.73,0,0,1-.83-.83q.38-417.78-.15-609.41c-.17-55.78-15.09-114.55-43.49-163.57a374.25,374.25,0,0,0-76.18-92.81q-97.42-86.5-229.48-86.46a.82.82,0,0,0-.83.81h0q-.11,167.22-.15,611.08,0,110.6,59.3,197.53c19.82,29,45.81,56.42,73.13,78.52q93.71,75.76,216.2,75.8a1.66,1.66,0,0,1,1.67,1.66q-.09,338.73,0,427.74,0,27.93,1.4,42.72,7,74.38,40.22,133.69,37.53,67,102.13,116a313.8,313.8,0,0,0,35.19,23.13q78.42,44.39,170.54,43.78a1.24,1.24,0,0,0,1.39-1.4v-786a1.32,1.32,0,0,1,1.32-1.32q130.15,0,226.71-84.49,37.59-32.85,62.44-68.7,55.55-80.12,59.91-177.37.38-7.85.39-42.61.15-267,0-589.8a.51.51,0,0,0-.58-.57q-121.87-.85-215.9,74.19-58.28,46.55-92.66,108.59-34.9,63-40.5,137-1.12,15-1.13,42.46,0,154.29,0,589.57a1,1,0,0,1-1,1" transform="translate(-5.64 303.51)"/><path class="cls-1" d="M2270.75,1289.25q109.41,0,174.1-.09a1.3,1.3,0,0,1,1.3,1.3q-.11,243.94,0,499.19,0,29.58,1,42.65,7.9,106.88,74.16,188.28a390.16,390.16,0,0,0,55.06,55.83q95.34,78.06,219.5,77.42a.72.72,0,0,0,.81-.81l.07-1751a.38.38,0,0,0-.39-.38h0q-120-1-213.24,72.11-57.76,45.32-92.74,106.21-36.8,64-42.89,140.45-1.29,16.35-1.32,42.48-.12,260.22,0,508.2a1,1,0,0,1-1.15,1.16H2096.47a1,1,0,0,1-1.15-1.16q.16-248,0-508.2,0-26.13-1.32-42.48-6.08-76.44-42.86-140.47-35-60.9-92.75-106.21-93.21-73.14-213.24-72.11a.38.38,0,0,0-.38.38l0,1751a.72.72,0,0,0,.81.81q124.15.64,219.5-77.41a390.16,390.16,0,0,0,55.06-55.83q66.25-81.37,74.16-188.26,1-13.07,1-42.65.12-255.26,0-499.19a1.3,1.3,0,0,1,1.3-1.3q64.7.09,174.11.09" transform="translate(-5.64 303.51)"/><path class="cls-1" d="M3410,1288.69q87.27,0,174.41.11a1.11,1.11,0,0,1,1.08,1.11q-.06,245.58,0,491.24,0,32.86.45,42.67,5.07,110.21,74.29,196.55c35.25,44,81.76,82.06,133.77,104.85a340.38,340.38,0,0,0,140.79,28.63.92.92,0,0,0,1-1q.07-694.31.07-1388.38,0-29.85-.94-42.44Q3927.2,620.22,3864,538.79a384.49,384.49,0,0,0-49.49-52q-87.09-76.89-202.26-84.54-13.3-.87-42.68-.9-46.61,0-159.54,0t-159.55,0q-29.37,0-42.67.9-115.17,7.62-202.29,84.51a386.88,386.88,0,0,0-49.49,52q-63.21,81.42-70.94,183.19-.93,12.58-.94,42.43-.07,694.08-.1,1388.39a.92.92,0,0,0,1,1,340.36,340.36,0,0,0,140.79-28.6c52-22.79,98.52-60.9,133.8-104.83q69.21-86.36,74.3-196.55.45-9.81.45-42.68.09-245.65.06-491.23a1.11,1.11,0,0,1,1.09-1.11q87.13-.09,174.38-.09" transform="translate(-5.64 303.51)"/><path class="cls-2" d="M1182.68,998.7a49.48,49.48,0,1,0-49.48,49.47h0a49.47,49.47,0,0,0,49.48-49.47h0" transform="translate(-5.64 303.51)"/><path class="cls-2" d="M3454,1646.07a47.64,47.64,0,0,0-95.28,0h0a47.64,47.64,0,0,0,47.64,47.64h0a47.64,47.64,0,0,0,47.64-47.64" transform="translate(-5.64 303.51)"/><path class="cls-1" d="M3585.23,423.78a1,1,0,0,0-1-1H3235.32a1,1,0,0,0-1,1h0v847.67a1,1,0,0,0,1,1h348.9a1,1,0,0,0,1-1V423.78" transform="translate(-5.64 303.51)"/><path class="cls-3" d="M4528.78-303.51v3159H5.64v-3159Zm-3223,1658-349,0a.73.73,0,0,1-.83-.83q.38-417.78-.15-609.41c-.17-55.78-15.09-114.55-43.49-163.57a374.25,374.25,0,0,0-76.18-92.81q-97.42-86.5-229.48-86.46a.82.82,0,0,0-.83.81h0q-.11,167.22-.15,611.08,0,110.6,59.3,197.53c19.82,29,45.81,56.42,73.13,78.52q93.71,75.76,216.2,75.8a1.66,1.66,0,0,1,1.67,1.66q-.09,338.73,0,427.74,0,27.93,1.4,42.72,7,74.38,40.22,133.69,37.53,67,102.13,116a313.8,313.8,0,0,0,35.19,23.13q78.42,44.39,170.54,43.78a1.24,1.24,0,0,0,1.39-1.4v-786a1.32,1.32,0,0,1,1.32-1.32q130.15,0,226.71-84.49,37.59-32.85,62.44-68.7,55.55-80.12,59.91-177.37.38-7.85.39-42.61.15-267,0-589.8a.51.51,0,0,0-.58-.57q-121.87-.85-215.9,74.19-58.28,46.55-92.66,108.59-34.9,63-40.5,137-1.12,15-1.13,42.46,0,154.29,0,589.57A1,1,0,0,1,1305.8,1354.47Zm965-65.22q109.41,0,174.1-.09a1.3,1.3,0,0,1,1.3,1.3q-.11,243.94,0,499.19,0,29.58,1,42.65,7.9,106.88,74.16,188.28a390.16,390.16,0,0,0,55.06,55.83q95.34,78.06,219.5,77.42a.72.72,0,0,0,.81-.81l.07-1751a.38.38,0,0,0-.39-.38h0q-120-1-213.24,72.11-57.76,45.32-92.74,106.21-36.8,64-42.89,140.45-1.29,16.35-1.32,42.48-.12,260.22,0,508.2a1,1,0,0,1-1.15,1.16H2096.47a1,1,0,0,1-1.15-1.16q.16-248,0-508.2,0-26.13-1.32-42.48-6.08-76.44-42.86-140.47-35-60.9-92.75-106.21-93.21-73.14-213.24-72.11a.38.38,0,0,0-.38.38l0,1751a.72.72,0,0,0,.81.81q124.15.64,219.5-77.41a390.16,390.16,0,0,0,55.06-55.83q66.25-81.37,74.16-188.26,1-13.07,1-42.65.12-255.26,0-499.19a1.3,1.3,0,0,1,1.3-1.3Q2161.34,1289.25,2270.75,1289.25Zm1139.2-.56q87.27,0,174.41.11a1.11,1.11,0,0,1,1.08,1.11q-.06,245.58,0,491.24,0,32.86.45,42.67,5.07,110.21,74.29,196.55c35.25,44,81.76,82.06,133.77,104.85a340.38,340.38,0,0,0,140.79,28.63.92.92,0,0,0,1-1q.07-694.31.07-1388.38,0-29.85-.94-42.44Q3927.2,620.22,3864,538.79a384.49,384.49,0,0,0-49.49-52q-87.09-76.89-202.26-84.54-13.3-.87-42.68-.9-46.61,0-159.54,0t-159.55,0q-29.37,0-42.67.9-115.17,7.62-202.29,84.51a386.88,386.88,0,0,0-49.49,52q-63.21,81.42-70.94,183.19-.93,12.58-.94,42.43-.07,694.08-.1,1388.39a.92.92,0,0,0,1,1,340.36,340.36,0,0,0,140.79-28.6c52-22.79,98.52-60.9,133.8-104.83q69.21-86.36,74.3-196.55.45-9.81.45-42.68.09-245.65.06-491.23a1.11,1.11,0,0,1,1.09-1.11Q3322.71,1288.69,3410,1288.69Zm-2228.79-290a49.47,49.47,0,1,0-49.47,49.47h0a49.47,49.47,0,0,0,49.47-49.47Z" transform="translate(-5.64 303.51)"/><path class="cls-4" d="M1305.8,1354.47a1,1,0,0,0,1-1q0-435.29,0-589.57,0-27.45,1.13-42.46,5.6-74,40.5-137,34.38-62.05,92.66-108.59,94-75,215.9-74.19a.51.51,0,0,1,.58.57q.11,322.8,0,589.8,0,34.77-.39,42.61-4.37,97.26-59.91,177.37-24.86,35.85-62.44,68.7-96.55,84.47-226.71,84.49a1.32,1.32,0,0,0-1.32,1.32v786a1.24,1.24,0,0,1-1.39,1.4q-92.11.6-170.54-43.78a313.8,313.8,0,0,1-35.19-23.13q-64.6-49-102.13-116-33.2-59.31-40.22-133.69-1.38-14.81-1.4-42.72-.08-89,0-427.74a1.66,1.66,0,0,0-1.67-1.66q-122.49,0-216.2-75.8c-27.32-22.1-53.31-49.49-73.13-78.52q-59.32-86.93-59.3-197.53,0-443.86.15-611.08a.82.82,0,0,1,.83-.81h0q132,0,229.48,86.46a374.25,374.25,0,0,1,76.18,92.81c28.4,49,43.32,107.79,43.49,163.57q.52,191.63.15,609.41a.73.73,0,0,0,.83.83Z" transform="translate(-5.64 303.51)"/><path class="cls-4" d="M2270.75,1272.2H2445a1,1,0,0,0,1.15-1.16q-.15-248,0-508.2,0-26.13,1.32-42.48,6.11-76.44,42.89-140.45,35-60.9,92.74-106.21,93.22-73.14,213.24-72.11a.38.38,0,0,1,.39.38h0L2796.66,2153a.72.72,0,0,1-.81.81q-124.16.63-219.5-77.42a390.16,390.16,0,0,1-55.06-55.83q-66.26-81.4-74.16-188.28-1-13.07-1-42.65-.12-255.26,0-499.19a1.3,1.3,0,0,0-1.3-1.3q-64.7.09-174.1.09t-174.11-.09a1.3,1.3,0,0,0-1.3,1.3q.09,243.94,0,499.19,0,29.58-1,42.65-7.91,106.88-74.16,188.26a390.16,390.16,0,0,1-55.06,55.83q-95.34,78-219.5,77.41a.72.72,0,0,1-.81-.81l0-1751a.38.38,0,0,1,.38-.38q120-1,213.24,72.11,57.77,45.32,92.75,106.21,36.78,64,42.86,140.47,1.3,16.35,1.32,42.48.13,260.22,0,508.2a1,1,0,0,0,1.15,1.16Z" transform="translate(-5.64 303.51)"/><path class="cls-4" d="M3410,401.33q112.92,0,159.54,0,29.39,0,42.68.9,115.16,7.65,202.26,84.54a384.49,384.49,0,0,1,49.49,52q63.21,81.44,70.92,183.19.95,12.6.94,42.44,0,694.08-.07,1388.38a.92.92,0,0,1-1,1A340.38,340.38,0,0,1,3794,2125.22c-52-22.79-98.52-60.9-133.77-104.85Q3591,1934,3585.89,1823.82q-.45-9.81-.45-42.67-.06-245.67,0-491.24a1.11,1.11,0,0,0-1.08-1.11q-87.15-.1-174.41-.11t-174.38.09a1.11,1.11,0,0,0-1.09,1.11q0,245.56-.06,491.23,0,32.88-.45,42.68-5.08,110.21-74.3,196.55c-35.28,43.93-81.79,82-133.8,104.83a340.36,340.36,0,0,1-140.79,28.6.92.92,0,0,1-1-1q0-694.3.1-1388.39,0-29.83.94-42.43,7.74-101.76,70.94-183.19a386.88,386.88,0,0,1,49.49-52q87.12-76.87,202.29-84.51,13.29-.88,42.67-.9Q3297.09,401.3,3410,401.33Zm175.21,22.45a1,1,0,0,0-1-1H3235.32a1,1,0,0,0-1,1h0v847.67a1,1,0,0,0,1,1h348.9a1,1,0,0,0,1-1Z" transform="translate(-5.64 303.51)"/><rect class="cls-3" x="3228.66" y="726.26" width="350.94" height="849.72" rx="1.02" ry="1.02"/><circle class="cls-5" cx="1131.69" cy="998.7" r="49.47" transform="translate(-301.68 812.61) rotate(-22.5)"/><circle class="cls-5" cx="3404.31" cy="1901.94" r="47.64"/></svg>